<svg xmlns="http://www.w3.org/2000/svg" xmlns:xlink="http://www.w3.org/1999/xlink" version="1.1" width="200"
    height="200" viewBox="0 0 200 200" xml:space="preserve">
    <desc>Created with Fabric.js 5.3.0</desc>
    <defs>
    </defs>
    <g transform="matrix(8.83 0 0 8.83 100 100)" id="ZHlkTKls9lvR4-O4d21DS">
        <path
            style="stroke: rgb(201,141,197); stroke-width: 1; stroke-dasharray: none; stroke-linecap: butt; stroke-dashoffset: 0; stroke-linejoin: miter; stroke-miterlimit: 4; fill: none; fill-rule: nonzero; opacity: 1;"
            transform=" translate(0, 0)"
            d="M -11.32503 -11.32503 L 11.32503 -11.32503 L 11.32503 11.32503 L -11.32503 11.32503 z"
            stroke-linecap="round" />
    </g>
    <g transform="matrix(1.01545 0 0 3.92935 163.5 135.5)" id="h_TrMIctlVfK5yyvwP8tU">
        <path
            style="stroke: rgb(201,141,197); stroke-width: 0; stroke-dasharray: none; stroke-linecap: butt; stroke-dashoffset: 0; stroke-linejoin: miter; stroke-miterlimit: 4; fill: rgb(201,141,197); fill-rule: nonzero; opacity: 1;"
            transform=" translate(0, 0)"
            d="M -11.32503 -11.32503 L 11.32503 -11.32503 L 11.32503 11.32503 L -11.32503 11.32503 z"
            stroke-linecap="round" />
    </g>
    <g transform="matrix(1.01545 0 0 2.649 36.5 150)" id="-vWrElWgkcCt6sxrS86T5">
        <path
            style="stroke: rgb(201,141,197); stroke-width: 0; stroke-dasharray: none; stroke-linecap: butt; stroke-dashoffset: 0; stroke-linejoin: miter; stroke-miterlimit: 4; fill: rgb(201,141,197); fill-rule: nonzero; opacity: 1;"
            transform=" translate(0, 0)"
            d="M -11.32503 -11.32503 L 11.32503 -11.32503 L 11.32503 11.32503 L -11.32503 11.32503 z"
            stroke-linecap="round" />
    </g>
    <g transform="matrix(1.01545 0 0 3.84105 79.5 136.5)" id="d7sjCAUHW0QN7WmqSF28y">
        <path
            style="stroke: rgb(201,141,197); stroke-width: 0; stroke-dasharray: none; stroke-linecap: butt; stroke-dashoffset: 0; stroke-linejoin: miter; stroke-miterlimit: 4; fill: rgb(201,141,197); fill-rule: nonzero; opacity: 1;"
            transform=" translate(0, 0)"
            d="M -11.32503 -11.32503 L 11.32503 -11.32503 L 11.32503 11.32503 L -11.32503 11.32503 z"
            stroke-linecap="round" />
    </g>
    <g transform="matrix(1.01545 0 0 2.78145 124.5 148.5)" id="_oAW82qNvSaF1pyV6IG9u">
        <path
            style="stroke: rgb(201,141,197); stroke-width: 0; stroke-dasharray: none; stroke-linecap: butt; stroke-dashoffset: 0; stroke-linejoin: miter; stroke-miterlimit: 4; fill: rgb(201,141,197); fill-rule: nonzero; opacity: 1;"
            transform=" translate(0, 0)"
            d="M -11.32503 -11.32503 L 11.32503 -11.32503 L 11.32503 11.32503 L -11.32503 11.32503 z"
            stroke-linecap="round" />
    </g>
    <g transform="matrix(1 0 0 1 36.5 74.5)" id="XNiL84LIM2Yk2wNau2tIW">
        <path
            style="stroke: rgb(201,141,197); stroke-width: 6; stroke-dasharray: none; stroke-linecap: butt; stroke-dashoffset: 0; stroke-linejoin: miter; stroke-miterlimit: 4; fill: none; fill-rule: nonzero; opacity: 1;"
            transform=" translate(-11.5, -11.5)"
            d="M 11.5 0 C 17.848 0 23 5.152 23 11.5 C 23 17.848 17.848 23 11.5 23 C 5.152 23 0 17.848 0 11.5 C 0 5.152 5.152 0 11.5 0 z"
            stroke-linecap="round" />
    </g>
    <g transform="matrix(1 0 0 1 79.5 47.5)" id="3fmue0fhQHqd5YNQEBD3v">
        <path
            style="stroke: rgb(201,141,197); stroke-width: 6; stroke-dasharray: none; stroke-linecap: butt; stroke-dashoffset: 0; stroke-linejoin: miter; stroke-miterlimit: 4; fill: none; fill-rule: nonzero; opacity: 1;"
            transform=" translate(-11.5, -11.5)"
            d="M 11.5 0 C 17.848 0 23 5.152 23 11.5 C 23 17.848 17.848 23 11.5 23 C 5.152 23 0 17.848 0 11.5 C 0 5.152 5.152 0 11.5 0 z"
            stroke-linecap="round" />
    </g>
    <g transform="matrix(1 0 0 1 124.5 71.5)" id="SsrRG1xZPlUQKRDOoSGBO">
        <path
            style="stroke: rgb(201,141,197); stroke-width: 6; stroke-dasharray: none; stroke-linecap: butt; stroke-dashoffset: 0; stroke-linejoin: miter; stroke-miterlimit: 4; fill: none; fill-rule: nonzero; opacity: 1;"
            transform=" translate(-11.5, -11.5)"
            d="M 11.5 0 C 17.848 0 23 5.152 23 11.5 C 23 17.848 17.848 23 11.5 23 C 5.152 23 0 17.848 0 11.5 C 0 5.152 5.152 0 11.5 0 z"
            stroke-linecap="round" />
    </g>
    <g transform="matrix(1 0 0 1 163.5 45.5)" id="wD5b-AjIXHkCzOZGRdYc-">
        <path
            style="stroke: rgb(201,141,197); stroke-width: 6; stroke-dasharray: none; stroke-linecap: butt; stroke-dashoffset: 0; stroke-linejoin: miter; stroke-miterlimit: 4; fill: none; fill-rule: nonzero; opacity: 1;"
            transform=" translate(-11.5, -11.5)"
            d="M 11.5 0 C 17.848 0 23 5.152 23 11.5 C 23 17.848 17.848 23 11.5 23 C 5.152 23 0 17.848 0 11.5 C 0 5.152 5.152 0 11.5 0 z"
            stroke-linecap="round" />
    </g>
    <g transform="matrix(0.202985561 0.2419087715 -1.0885894718 0.9134350243 59 59.5)" id="PYXFZDmJJrmoYcttz8t3Z">
        <path
            style="stroke: rgb(201,141,197); stroke-width: 0; stroke-dasharray: none; stroke-linecap: butt; stroke-dashoffset: 0; stroke-linejoin: miter; stroke-miterlimit: 4; fill: rgb(201,141,197); fill-rule: nonzero; opacity: 1;"
            transform=" translate(0, 0)" d="M -9.5 -9.5 L 9.5 -9.5 L 9.5 9.5 L -9.5 9.5 z" stroke-linecap="round" />
    </g>
    <g transform="matrix(0.1719912742 -0.2648433372 1.1917950176 0.773960734 103 56.5)" id="9enGxf-92aoJsggBcBb7g">
        <path
            style="stroke: rgb(201,141,197); stroke-width: 0; stroke-dasharray: none; stroke-linecap: butt; stroke-dashoffset: 0; stroke-linejoin: miter; stroke-miterlimit: 4; fill: rgb(201,141,197); fill-rule: nonzero; opacity: 1;"
            transform=" translate(0, 0)" d="M -9.5 -9.5 L 9.5 -9.5 L 9.5 9.5 L -9.5 9.5 z" stroke-linecap="round" />
    </g>
    <g transform="matrix(0.202985561 0.2419087715 -1.0885894718 0.9134350243 144 58.5)" id="EVg2V69V2hcmZC3y5QRxq">
        <path
            style="stroke: rgb(201,141,197); stroke-width: 0; stroke-dasharray: none; stroke-linecap: butt; stroke-dashoffset: 0; stroke-linejoin: miter; stroke-miterlimit: 4; fill: rgb(201,141,197); fill-rule: nonzero; opacity: 1;"
            transform=" translate(0, 0)" d="M -9.5 -9.5 L 9.5 -9.5 L 9.5 9.5 L -9.5 9.5 z" stroke-linecap="round" />
    </g>
</svg>